<?xml version="1.0" encoding="utf-8"?>
<!-- Generator: Adobe Illustrator 27.9.5, SVG Export Plug-In . SVG Version: 9.03 Build 54986)  -->
<svg version="1.1" id="Capa_1" xmlns="http://www.w3.org/2000/svg" xmlns:xlink="http://www.w3.org/1999/xlink" x="0px" y="0px"
	 viewBox="0 0 612 792" style="enable-background:new 0 0 612 792;" xml:space="preserve">
<style type="text/css">
	.st0{fill:#FFFFFF;}
</style>
<g>
	<g>
		<path class="st0" d="M177,242.5c86.33,0,172.67,0,259,0c0,102.67,0,205.33,0,308c-86.33,0-172.67,0-259,0
			C177,447.83,177,345.17,177,242.5z M395.47,449.94c-0.88-17.25-7.4-33.48-25.05-43.85c-10.34-6.07-20.5-12.44-30.54-19.01
			c-11.75-7.69-24.32-13.18-38.33-14.74c-14.27-1.59-24.26-8.93-31.27-21.24c-3.1-5.45-6.87-10.62-10.91-15.42
			c-3.18-3.77-5.21-7.52-5.01-12.57c0.06-1.44-1.06-3.51-2.29-4.32c-4.72-3.11-9.6-6.02-14.62-8.62c-5.65-2.93-10.36-1.4-13.51,4.18
			c-5.3,9.38-9.03,19.4-10,30.15c-2.1,23.29,4.95,42.24,26.23,54.51c11.97,6.9,23.51,14.53,35.3,21.74
			c9.51,5.81,19.89,9.5,30.91,10.7c14.85,1.62,25.25,9.02,32.44,21.94c3.05,5.47,7.06,10.45,11.04,15.32
			c3.02,3.68,4.68,7.5,4.49,12.29c-0.05,1.31,0.83,3.24,1.9,3.93c4.89,3.16,9.88,6.2,15.05,8.87c5.69,2.95,10.5,1.45,13.56-4.1
			C391.33,478.01,395.19,465.55,395.47,449.94z M210.65,487.16c1.73,1.19,2.91,2.08,4.16,2.86c18.1,11.22,36.33,22.25,54.29,33.69
			c12.4,7.9,25.85,12.1,40.39,12.96c22.5,1.34,41.37-6.78,57.08-22.58c5.2-5.23,4.41-11.36-1.72-15.65
			c-3.41-2.38-7.07-4.4-10.42-6.86c-2.62-1.93-4.67-1.72-7.66-0.43c-2.98,1.29-6.74,1.52-10.04,1.16
			c-7.57-0.83-15.03-2.75-22.61-3.42c-13-1.15-22.67-7.03-30.41-17.56c-5.57-7.56-12.15-14.54-19.11-20.87
			c-10.14-9.21-27.14-6.93-34.7,4.54C223.13,465.28,217.22,476.11,210.65,487.16z M398.2,316.81c-1.94-1.27-3.29-2.2-4.68-3.06
			c-18.12-11.23-36.12-22.65-54.42-33.58c-6.23-3.72-12.94-7.05-19.87-9.11c-29.09-8.64-54.99-2.96-76.76,18.77
			c-5.48,5.47-4.72,11.59,1.7,15.92c3.59,2.42,7.13,4.99,10.98,6.92c1.68,0.85,4.09,0.44,6.15,0.3c3.86-0.26,7.76-1.36,11.54-0.99
			c6.92,0.67,13.73,2.73,20.64,3.16c13.43,0.84,23.54,6.56,31.55,17.42c5.48,7.43,11.9,14.35,18.73,20.58
			c10.48,9.57,27.23,7.59,35.1-4.14C385.71,338.79,391.57,327.93,398.2,316.81z M307.83,329.65c-4.57-5.3-11.61-6.41-19.31-3.05
			C296.97,334.02,301.15,335.91,307.83,329.65z M289.59,358.43c3.84-8.5-0.8-12.4-10.9-16.26
			C279.32,350.03,282.64,355.11,289.59,358.43z M330.39,462.38c-1.35-9.77-5.45-15.33-11.91-16.52
			C316.87,454.55,318.32,456.61,330.39,462.38z M320.77,477.23c-10.74-8.09-14.31-8.52-19.68-2.63
			C305.84,479.55,313.18,480.61,320.77,477.23z"/>
		<path d="M395.47,449.94c-0.29,15.61-4.15,28.07-10.61,39.76c-3.06,5.55-7.87,7.04-13.56,4.1c-5.17-2.67-10.16-5.71-15.05-8.87
			c-1.07-0.69-1.95-2.61-1.9-3.93c0.19-4.8-1.47-8.61-4.49-12.29c-3.99-4.86-8-9.85-11.04-15.32c-7.19-12.91-17.6-20.32-32.44-21.94
			c-11.02-1.2-21.4-4.89-30.91-10.7c-11.79-7.21-23.34-14.84-35.3-21.74c-21.28-12.28-28.32-31.23-26.23-54.51
			c0.97-10.75,4.7-20.76,10-30.15c3.15-5.57,7.85-7.1,13.51-4.18c5.02,2.6,9.9,5.51,14.62,8.62c1.22,0.8,2.35,2.88,2.29,4.32
			c-0.2,5.05,1.84,8.8,5.01,12.57c4.04,4.81,7.81,9.97,10.91,15.42c7,12.31,16.99,19.65,31.27,21.24c14,1.56,26.57,7.06,38.33,14.74
			c10.03,6.56,20.2,12.94,30.54,19.01C388.08,416.46,394.6,432.69,395.47,449.94z"/>
		<path d="M210.65,487.16c6.57-11.06,12.48-21.88,19.24-32.14c7.56-11.47,24.57-13.75,34.7-4.54c6.96,6.32,13.55,13.31,19.11,20.87
			c7.74,10.52,17.41,16.41,30.41,17.56c7.58,0.67,15.04,2.59,22.61,3.42c3.3,0.36,7.06,0.13,10.04-1.16c3-1.3,5.05-1.5,7.66,0.43
			c3.34,2.46,7.01,4.48,10.42,6.86c6.13,4.29,6.93,10.42,1.72,15.65c-15.71,15.8-34.58,23.92-57.08,22.58
			c-14.54-0.87-27.99-5.07-40.39-12.96c-17.96-11.44-36.19-22.47-54.29-33.69C213.56,489.24,212.38,488.35,210.65,487.16z"/>
		<path d="M398.2,316.81c-6.63,11.12-12.49,21.98-19.34,32.19c-7.87,11.72-24.62,13.7-35.1,4.14c-6.83-6.23-13.24-13.15-18.73-20.58
			c-8.01-10.86-18.12-16.59-31.55-17.42c-6.92-0.43-13.72-2.49-20.64-3.16c-3.78-0.36-7.68,0.73-11.54,0.99
			c-2.06,0.14-4.47,0.54-6.15-0.3c-3.85-1.93-7.39-4.5-10.98-6.92c-6.42-4.33-7.18-10.45-1.7-15.92
			c21.77-21.73,47.67-27.4,76.76-18.77c6.92,2.06,13.64,5.39,19.87,9.11c18.3,10.93,36.31,22.34,54.42,33.58
			C394.91,314.61,396.26,315.54,398.2,316.81z"/>
		<path d="M307.83,329.65c-6.68,6.27-10.86,4.37-19.31-3.05C296.23,323.24,303.27,324.35,307.83,329.65z"/>
		<path d="M289.59,358.43c-6.95-3.32-10.27-8.4-10.9-16.26C288.79,346.03,293.43,349.93,289.59,358.43z"/>
		<path d="M330.39,462.38c-12.07-5.77-13.52-7.83-11.91-16.52C324.93,447.05,329.03,452.61,330.39,462.38z"/>
		<path d="M320.77,477.23c-7.59,3.37-14.93,2.32-19.68-2.63C306.46,468.71,310.03,469.15,320.77,477.23z"/>
	</g>
</g>
</svg>
